<svg xmlns="http://www.w3.org/2000/svg" width="1920" height="1080"><path d="M80,1343L-57,1348L257,1346Z" fill="#7c8ba4" stroke="#7c8ba4" stroke-width="1.51"/><path d="M301,-208L705,-196L1035,-239Z" fill="#ced6e9" stroke="#ced6e9" stroke-width="1.51"/><path d="M-119,-268L301,-208L1035,-239Z" fill="#e2e0ee" stroke="#e2e0ee" stroke-width="1.51"/><path d="M1157,1281L840,1303L1332,1303Z" fill="#326e97" stroke="#326e97" stroke-width="1.51"/><path d="M1035,-239L1316,-238L1459,-252Z" fill="#a3c0dc" stroke="#a3c0dc" stroke-width="1.51"/><path d="M1035,-239L1459,-252L1626,-262Z" fill="#a0bada" stroke="#a0bada" stroke-width="1.51"/><path d="M-119,-268L1035,-239L1626,-262Z" fill="#c3d2e7" stroke="#c3d2e7" stroke-width="1.51"/><path d="M1332,1303L840,1303L1783,1336Z" fill="#1a6490" stroke="#1a6490" stroke-width="1.51"/><path d="M840,1303L257,1346L1783,1336Z" fill="#407196" stroke="#407196" stroke-width="1.51"/><path d="M1596,1300L1332,1303L1783,1336Z" fill="#035789" stroke="#035789" stroke-width="1.51"/><path d="M-119,-268L1626,-262L1913,-266Z" fill="#aec7e0" stroke="#aec7e0" stroke-width="1.51"/><path d="M1932,1261L1783,1336L2026,1230Z" fill="#034d78" stroke="#034d78" stroke-width="1.51"/><path d="M2049,1087L2026,1230L2103,1027Z" fill="#04517e" stroke="#04517e" stroke-width="1.51"/><path d="M2087,722L2057,877L2103,1027Z" fill="#105e8c" stroke="#105e8c" stroke-width="1.51"/><path d="M1942,484L2086,595L2130,438Z" fill="#47769c" stroke="#47769c" stroke-width="1.51"/><path d="M2087,722L2103,1027L2130,438Z" fill="#216690" stroke="#216690" stroke-width="1.51"/><path d="M2086,595L2087,722L2130,438Z" fill="#3a6e95" stroke="#3a6e95" stroke-width="1.51"/><path d="M2092,44L1985,56L2131,218Z" fill="#7487a6" stroke="#7487a6" stroke-width="1.51"/><path d="M1985,56L1923,247L2131,218Z" fill="#7087a9" stroke="#7087a9" stroke-width="1.51"/><path d="M1930,359L2130,438L2131,218Z" fill="#5c7da0" stroke="#5c7da0" stroke-width="1.51"/><path d="M1923,247L1930,359L2131,218Z" fill="#6684a8" stroke="#6684a8" stroke-width="1.51"/><path d="M2099,-158L1985,56L2138,-66Z" fill="#7f8eaa" stroke="#7f8eaa" stroke-width="1.51"/><path d="M1985,56L2092,44L2138,-66Z" fill="#7a8ba8" stroke="#7a8ba8" stroke-width="1.51"/><path d="M2131,218L2130,438L2138,-66Z" fill="#697f9d" stroke="#697f9d" stroke-width="1.51"/><path d="M2092,44L2131,218L2138,-66Z" fill="#7486a2" stroke="#7486a2" stroke-width="1.51"/><path d="M1886,-80L1985,56L2099,-158Z" fill="#8294b1" stroke="#8294b1" stroke-width="1.51"/><path d="M1930,359L1942,484L2130,438Z" fill="#537da4" stroke="#537da4" stroke-width="1.51"/><path d="M1914,723L1947,881L2057,877Z" fill="#186799" stroke="#186799" stroke-width="1.51"/><path d="M2086,595L1914,723L2087,722Z" fill="#2d6e99" stroke="#2d6e99" stroke-width="1.51"/><path d="M1914,723L2057,877L2087,722Z" fill="#1c6996" stroke="#1c6996" stroke-width="1.51"/><path d="M2057,877L1912,942L2103,1027Z" fill="#055c8f" stroke="#055c8f" stroke-width="1.51"/><path d="M1912,942L2049,1087L2103,1027Z" fill="#04588a" stroke="#04588a" stroke-width="1.51"/><path d="M1913,-266L1886,-80L2099,-158Z" fill="#899ab7" stroke="#899ab7" stroke-width="1.51"/><path d="M1947,881L1912,942L2057,877Z" fill="#0e6296" stroke="#0e6296" stroke-width="1.51"/><path d="M1942,484L1914,723L2086,595Z" fill="#3b76a0" stroke="#3b76a0" stroke-width="1.51"/><path d="M1916,1131L2026,1230L2049,1087Z" fill="#035281" stroke="#035281" stroke-width="1.51"/><path d="M1912,942L1916,1131L2049,1087Z" fill="#04598d" stroke="#04598d" stroke-width="1.51"/><path d="M1916,1131L1932,1261L2026,1230Z" fill="#03507d" stroke="#03507d" stroke-width="1.51"/><path d="M1912,942L1827,984L1916,1131Z" fill="#056096" stroke="#056096" stroke-width="1.51"/><path d="M1749,489L1914,723L1942,484Z" fill="#437eac" stroke="#437eac" stroke-width="1.51"/><path d="M1820,67L1923,247L1985,56Z" fill="#7990b4" stroke="#7990b4" stroke-width="1.51"/><path d="M1886,-80L1820,67L1985,56Z" fill="#8197b9" stroke="#8197b9" stroke-width="1.51"/><path d="M1830,-71L1820,67L1886,-80Z" fill="#869cbe" stroke="#869cbe" stroke-width="1.51"/><path d="M1745,-167L1886,-80L1913,-266Z" fill="#8da1c1" stroke="#8da1c1" stroke-width="1.51"/><path d="M1749,489L1770,743L1914,723Z" fill="#367cad" stroke="#367cad" stroke-width="1.51"/><path d="M1820,67L1761,195L1923,247Z" fill="#7792b9" stroke="#7792b9" stroke-width="1.51"/><path d="M1923,247L1808,336L1930,359Z" fill="#6589b1" stroke="#6589b1" stroke-width="1.51"/><path d="M1930,359L1808,336L1942,484Z" fill="#5b85af" stroke="#5b85af" stroke-width="1.51"/><path d="M1808,336L1749,489L1942,484Z" fill="#5786b2" stroke="#5786b2" stroke-width="1.51"/><path d="M1914,723L1763,787L1947,881Z" fill="#1c70a3" stroke="#1c70a3" stroke-width="1.51"/><path d="M1763,787L1912,942L1947,881Z" fill="#136aa0" stroke="#136aa0" stroke-width="1.51"/><path d="M1008,1277L840,1303L1157,1281Z" fill="#3e739b" stroke="#3e739b" stroke-width="1.51"/><path d="M1916,1131L1748,1113L1932,1261Z" fill="#04588b" stroke="#04588b" stroke-width="1.51"/><path d="M1745,-167L1830,-71L1886,-80Z" fill="#8ca0c2" stroke="#8ca0c2" stroke-width="1.51"/><path d="M1763,787L1827,984L1912,942Z" fill="#0f69a2" stroke="#0f69a2" stroke-width="1.51"/><path d="M1770,743L1763,787L1914,723Z" fill="#2176a9" stroke="#2176a9" stroke-width="1.51"/><path d="M1748,1113L1783,1336L1932,1261Z" fill="#035584" stroke="#035584" stroke-width="1.51"/><path d="M1827,984L1748,1113L1916,1131Z" fill="#045f95" stroke="#045f95" stroke-width="1.51"/><path d="M1761,195L1808,336L1923,247Z" fill="#6d8eb7" stroke="#6d8eb7" stroke-width="1.51"/><path d="M1626,-262L1745,-167L1913,-266Z" fill="#92a7c8" stroke="#92a7c8" stroke-width="1.51"/><path d="M1617,513L1617,727L1749,489Z" fill="#4586b8" stroke="#4586b8" stroke-width="1.51"/><path d="M1749,489L1617,727L1770,743Z" fill="#377fb2" stroke="#377fb2" stroke-width="1.51"/><path d="M1748,1113L1679,1129L1783,1336Z" fill="#045b8f" stroke="#045b8f" stroke-width="1.51"/><path d="M1635,960L1748,1113L1827,984Z" fill="#0466a0" stroke="#0466a0" stroke-width="1.51"/><path d="M1763,787L1667,831L1827,984Z" fill="#156fa8" stroke="#156fa8" stroke-width="1.51"/><path d="M1667,831L1635,960L1827,984Z" fill="#0b6ca8" stroke="#0b6ca8" stroke-width="1.51"/><path d="M1608,-18L1820,67L1830,-71Z" fill="#869ec3" stroke="#869ec3" stroke-width="1.51"/><path d="M1745,-167L1608,-18L1830,-71Z" fill="#8da3c7" stroke="#8da3c7" stroke-width="1.51"/><path d="M1643,429L1749,489L1808,336Z" fill="#5b8bb9" stroke="#5b8bb9" stroke-width="1.51"/><path d="M1679,1129L1596,1300L1783,1336Z" fill="#04588a" stroke="#04588a" stroke-width="1.51"/><path d="M1761,195L1634,289L1808,336Z" fill="#6e91bc" stroke="#6e91bc" stroke-width="1.51"/><path d="M1598,36L1761,195L1820,67Z" fill="#809ac2" stroke="#809ac2" stroke-width="1.51"/><path d="M1608,-18L1598,36L1820,67Z" fill="#869fc7" stroke="#869fc7" stroke-width="1.51"/><path d="M1634,289L1643,429L1808,336Z" fill="#658fbd" stroke="#658fbd" stroke-width="1.51"/><path d="M1635,960L1679,1129L1748,1113Z" fill="#04659e" stroke="#04659e" stroke-width="1.51"/><path d="M1617,727L1763,787L1770,743Z" fill="#2279af" stroke="#2279af" stroke-width="1.51"/><path d="M1598,36L1634,289L1761,195Z" fill="#7a99c4" stroke="#7a99c4" stroke-width="1.51"/><path d="M1617,727L1667,831L1763,787Z" fill="#2078af" stroke="#2078af" stroke-width="1.51"/><path d="M1522,-105L1608,-18L1745,-167Z" fill="#90a7cd" stroke="#90a7cd" stroke-width="1.51"/><path d="M1643,429L1617,513L1749,489Z" fill="#548bbb" stroke="#548bbb" stroke-width="1.51"/><path d="M1598,36L1510,226L1634,289Z" fill="#7b9bc9" stroke="#7b9bc9" stroke-width="1.51"/><path d="M1626,-262L1522,-105L1745,-167Z" fill="#94aacf" stroke="#94aacf" stroke-width="1.51"/><path d="M1457,684L1617,727L1617,513Z" fill="#3b86bc" stroke="#3b86bc" stroke-width="1.51"/><path d="M1493,855L1635,960L1667,831Z" fill="#1374b0" stroke="#1374b0" stroke-width="1.51"/><path d="M1518,1036L1434,1180L1679,1129Z" fill="#0768a2" stroke="#0768a2" stroke-width="1.51"/><path d="M1434,1180L1453,1232L1679,1129Z" fill="#0a659c" stroke="#0a659c" stroke-width="1.51"/><path d="M1453,1232L1596,1300L1679,1129Z" fill="#045f95" stroke="#045f95" stroke-width="1.51"/><path d="M1635,960L1518,1036L1679,1129Z" fill="#0569a5" stroke="#0569a5" stroke-width="1.51"/><path d="M1491,66L1510,226L1598,36Z" fill="#84a1cc" stroke="#84a1cc" stroke-width="1.51"/><path d="M1634,289L1495,354L1643,429Z" fill="#6793c3" stroke="#6793c3" stroke-width="1.51"/><path d="M1617,727L1493,855L1667,831Z" fill="#1e7ab4" stroke="#1e7ab4" stroke-width="1.51"/><path d="M1536,481L1457,684L1617,513Z" fill="#4a8cc0" stroke="#4a8cc0" stroke-width="1.51"/><path d="M1459,-252L1522,-105L1626,-262Z" fill="#98b0d5" stroke="#98b0d5" stroke-width="1.51"/><path d="M1536,481L1617,513L1643,429Z" fill="#568dbf" stroke="#568dbf" stroke-width="1.51"/><path d="M1495,354L1536,481L1643,429Z" fill="#5f91c3" stroke="#5f91c3" stroke-width="1.51"/><path d="M1493,855L1518,1036L1635,960Z" fill="#0770b0" stroke="#0770b0" stroke-width="1.51"/><path d="M1510,226L1495,354L1634,289Z" fill="#7098c7" stroke="#7098c7" stroke-width="1.51"/><path d="M1453,1232L1332,1303L1596,1300Z" fill="#105f91" stroke="#105f91" stroke-width="1.51"/><path d="M1457,684L1493,855L1617,727Z" fill="#2681b9" stroke="#2681b9" stroke-width="1.51"/><path d="M1491,66L1598,36L1608,-18Z" fill="#89a4ce" stroke="#89a4ce" stroke-width="1.51"/><path d="M1522,-105L1491,66L1608,-18Z" fill="#8da8d0" stroke="#8da8d0" stroke-width="1.51"/><path d="M1493,855L1329,898L1518,1036Z" fill="#1877b4" stroke="#1877b4" stroke-width="1.51"/><path d="M1329,898L1334,1023L1518,1036Z" fill="#1a77b1" stroke="#1a77b1" stroke-width="1.51"/><path d="M1376,-79L1491,66L1522,-105Z" fill="#92add3" stroke="#92add3" stroke-width="1.51"/><path d="M1459,-252L1376,-79L1522,-105Z" fill="#98b2d6" stroke="#98b2d6" stroke-width="1.51"/><path d="M1348,632L1457,684L1536,481Z" fill="#488fc1" stroke="#488fc1" stroke-width="1.51"/><path d="M1495,354L1290,445L1536,481Z" fill="#6298c6" stroke="#6298c6" stroke-width="1.51"/><path d="M1290,445L1348,632L1536,481Z" fill="#5696c5" stroke="#5696c5" stroke-width="1.51"/><path d="M1292,98L1326,246L1491,66Z" fill="#88a9d0" stroke="#88a9d0" stroke-width="1.51"/><path d="M1326,246L1495,354L1510,226Z" fill="#759fca" stroke="#759fca" stroke-width="1.51"/><path d="M1491,66L1326,246L1510,226Z" fill="#81a3cd" stroke="#81a3cd" stroke-width="1.51"/><path d="M1334,1023L1434,1180L1518,1036Z" fill="#1570a8" stroke="#1570a8" stroke-width="1.51"/><path d="M1457,684L1329,898L1493,855Z" fill="#2782b9" stroke="#2782b9" stroke-width="1.51"/><path d="M1376,-79L1292,98L1491,66Z" fill="#8faed3" stroke="#8faed3" stroke-width="1.51"/><path d="M1326,246L1290,445L1495,354Z" fill="#70a0ca" stroke="#70a0ca" stroke-width="1.51"/><path d="M1316,-238L1376,-79L1459,-252Z" fill="#9cb8d8" stroke="#9cb8d8" stroke-width="1.51"/><path d="M1290,445L1280,587L1348,632Z" fill="#5499c6" stroke="#5499c6" stroke-width="1.51"/><path d="M1334,1023L1320,1175L1434,1180Z" fill="#1b71a6" stroke="#1b71a6" stroke-width="1.51"/><path d="M1348,632L1329,898L1457,684Z" fill="#318abe" stroke="#318abe" stroke-width="1.51"/><path d="M1187,792L1329,898L1348,632Z" fill="#338cbe" stroke="#338cbe" stroke-width="1.51"/><path d="M1434,1180L1320,1175L1453,1232Z" fill="#166a9d" stroke="#166a9d" stroke-width="1.51"/><path d="M1320,1175L1332,1303L1453,1232Z" fill="#186898" stroke="#186898" stroke-width="1.51"/><path d="M719,1275L257,1346L840,1303Z" fill="#607ea0" stroke="#607ea0" stroke-width="1.51"/><path d="M1158,331L1290,445L1326,246Z" fill="#75a6cd" stroke="#75a6cd" stroke-width="1.51"/><path d="M1193,636L1187,792L1348,632Z" fill="#4394c3" stroke="#4394c3" stroke-width="1.51"/><path d="M1174,-73L1292,98L1376,-79Z" fill="#97b6d7" stroke="#97b6d7" stroke-width="1.51"/><path d="M1229,-180L1174,-73L1376,-79Z" fill="#9dbcda" stroke="#9dbcda" stroke-width="1.51"/><path d="M1316,-238L1229,-180L1376,-79Z" fill="#9ebbda" stroke="#9ebbda" stroke-width="1.51"/><path d="M1035,-239L1229,-180L1316,-238Z" fill="#a7c2de" stroke="#a7c2de" stroke-width="1.51"/><path d="M1320,1175L1157,1281L1332,1303Z" fill="#1f6c99" stroke="#1f6c99" stroke-width="1.51"/><path d="M1194,1151L1320,1175L1334,1023Z" fill="#2176a9" stroke="#2176a9" stroke-width="1.51"/><path d="M1198,1024L1194,1151L1334,1023Z" fill="#267aaf" stroke="#267aaf" stroke-width="1.51"/><path d="M1329,898L1198,1024L1334,1023Z" fill="#227db5" stroke="#227db5" stroke-width="1.51"/><path d="M1280,587L1193,636L1348,632Z" fill="#4d97c4" stroke="#4d97c4" stroke-width="1.51"/><path d="M1174,118L1148,194L1292,98Z" fill="#90b2d5" stroke="#90b2d5" stroke-width="1.51"/><path d="M1194,1151L1157,1281L1320,1175Z" fill="#2772a1" stroke="#2772a1" stroke-width="1.51"/><path d="M1292,98L1148,194L1326,246Z" fill="#88aed2" stroke="#88aed2" stroke-width="1.51"/><path d="M1187,792L1198,1024L1329,898Z" fill="#2d84bb" stroke="#2d84bb" stroke-width="1.51"/><path d="M1148,194L1158,331L1326,246Z" fill="#83acd0" stroke="#83acd0" stroke-width="1.51"/><path d="M1144,487L1280,587L1290,445Z" fill="#609fc9" stroke="#609fc9" stroke-width="1.51"/><path d="M1174,-73L1174,118L1292,98Z" fill="#96b6d7" stroke="#96b6d7" stroke-width="1.51"/><path d="M1187,792L1091,868L1198,1024Z" fill="#3988bd" stroke="#3988bd" stroke-width="1.51"/><path d="M1158,331L1144,487L1290,445Z" fill="#70a5cd" stroke="#70a5cd" stroke-width="1.51"/><path d="M1144,487L1193,636L1280,587Z" fill="#599cc8" stroke="#599cc8" stroke-width="1.51"/><path d="M1046,-1L1048,55L1174,118Z" fill="#a0bbda" stroke="#a0bbda" stroke-width="1.51"/><path d="M1046,-1L1174,118L1174,-73Z" fill="#9fbcd9" stroke="#9fbcd9" stroke-width="1.51"/><path d="M1091,868L1074,957L1198,1024Z" fill="#3a85bc" stroke="#3a85bc" stroke-width="1.51"/><path d="M1035,-239L1174,-73L1229,-180Z" fill="#a8c3de" stroke="#a8c3de" stroke-width="1.51"/><path d="M1037,387L1144,487L1158,331Z" fill="#79a9cf" stroke="#79a9cf" stroke-width="1.51"/><path d="M976,683L1187,792L1193,636Z" fill="#4f98c5" stroke="#4f98c5" stroke-width="1.51"/><path d="M1052,575L976,683L1193,636Z" fill="#5e9fc8" stroke="#5e9fc8" stroke-width="1.51"/><path d="M1144,487L1052,575L1193,636Z" fill="#61a0ca" stroke="#61a0ca" stroke-width="1.51"/><path d="M986,1162L1157,1281L1194,1151Z" fill="#3576a4" stroke="#3576a4" stroke-width="1.51"/><path d="M986,1162L1194,1151L1198,1024Z" fill="#367cae" stroke="#367cae" stroke-width="1.51"/><path d="M1074,957L986,1162L1198,1024Z" fill="#3c81b4" stroke="#3c81b4" stroke-width="1.51"/><path d="M976,683L1091,868L1187,792Z" fill="#4a95c3" stroke="#4a95c3" stroke-width="1.51"/><path d="M986,1162L1008,1277L1157,1281Z" fill="#3b75a0" stroke="#3b75a0" stroke-width="1.51"/><path d="M1148,194L1014,201L1158,331Z" fill="#8cb1d4" stroke="#8cb1d4" stroke-width="1.51"/><path d="M1048,55L1148,194L1174,118Z" fill="#98b6d7" stroke="#98b6d7" stroke-width="1.51"/><path d="M1035,-239L1046,-1L1174,-73Z" fill="#aac3de" stroke="#aac3de" stroke-width="1.51"/><path d="M1048,55L1014,201L1148,194Z" fill="#99b7d7" stroke="#99b7d7" stroke-width="1.51"/><path d="M1014,201L1037,387L1158,331Z" fill="#88b0d3" stroke="#88b0d3" stroke-width="1.51"/><path d="M705,-196L905,-175L1035,-239Z" fill="#becfe5" stroke="#becfe5" stroke-width="1.51"/><path d="M1037,387L1052,575L1144,487Z" fill="#72a7ce" stroke="#72a7ce" stroke-width="1.51"/><path d="M1035,-239L905,-175L1046,-1Z" fill="#b2c8e1" stroke="#b2c8e1" stroke-width="1.51"/><path d="M905,-175L894,-84L1046,-1Z" fill="#b4c9e1" stroke="#b4c9e1" stroke-width="1.51"/><path d="M1037,387L882,544L1052,575Z" fill="#77a9cf" stroke="#77a9cf" stroke-width="1.51"/><path d="M896,1099L986,1162L1074,957Z" fill="#4784b4" stroke="#4784b4" stroke-width="1.51"/><path d="M938,893L1074,957L1091,868Z" fill="#478dc0" stroke="#478dc0" stroke-width="1.51"/><path d="M976,683L938,893L1091,868Z" fill="#5195c4" stroke="#5195c4" stroke-width="1.51"/><path d="M1014,201L901,227L1037,387Z" fill="#93b5d6" stroke="#93b5d6" stroke-width="1.51"/><path d="M926,133L1014,201L1048,55Z" fill="#a1bbda" stroke="#a1bbda" stroke-width="1.51"/><path d="M938,893L868,951L1074,957Z" fill="#4d8dc0" stroke="#4d8dc0" stroke-width="1.51"/><path d="M868,951L896,1099L1074,957Z" fill="#4d8abb" stroke="#4d8abb" stroke-width="1.51"/><path d="M852,421L882,544L1037,387Z" fill="#83aed2" stroke="#83aed2" stroke-width="1.51"/><path d="M898,642L976,683L1052,575Z" fill="#66a3cb" stroke="#66a3cb" stroke-width="1.51"/><path d="M882,544L898,642L1052,575Z" fill="#70a6ce" stroke="#70a6ce" stroke-width="1.51"/><path d="M894,-84L926,133L1046,-1Z" fill="#acc3de" stroke="#acc3de" stroke-width="1.51"/><path d="M1046,-1L926,133L1048,55Z" fill="#a5bedc" stroke="#a5bedc" stroke-width="1.51"/><path d="M901,227L852,421L1037,387Z" fill="#8fb3d5" stroke="#8fb3d5" stroke-width="1.51"/><path d="M986,1162L840,1303L1008,1277Z" fill="#4579a2" stroke="#4579a2" stroke-width="1.51"/><path d="M926,133L901,227L1014,201Z" fill="#9fbada" stroke="#9fbada" stroke-width="1.51"/><path d="M898,642L938,893L976,683Z" fill="#5c9ec9" stroke="#5c9ec9" stroke-width="1.51"/><path d="M898,642L717,810L938,893Z" fill="#629dc8" stroke="#629dc8" stroke-width="1.51"/><path d="M896,1099L840,1303L986,1162Z" fill="#4b7faa" stroke="#4b7faa" stroke-width="1.51"/><path d="M894,-84L762,-46L926,133Z" fill="#b4c7e0" stroke="#b4c7e0" stroke-width="1.51"/><path d="M301,-208L595,-162L705,-196Z" fill="#d7daec" stroke="#d7daec" stroke-width="1.51"/><path d="M776,1122L840,1303L896,1099Z" fill="#5382ae" stroke="#5382ae" stroke-width="1.51"/><path d="M757,271L852,421L901,227Z" fill="#9bb8d8" stroke="#9bb8d8" stroke-width="1.51"/><path d="M762,-46L764,142L926,133Z" fill="#b3c4df" stroke="#b3c4df" stroke-width="1.51"/><path d="M717,810L868,951L938,893Z" fill="#5d95c5" stroke="#5d95c5" stroke-width="1.51"/><path d="M764,142L901,227L926,133Z" fill="#a7bedc" stroke="#a7bedc" stroke-width="1.51"/><path d="M868,951L776,1122L896,1099Z" fill="#568ab9" stroke="#568ab9" stroke-width="1.51"/><path d="M685,667L717,810L898,642Z" fill="#71a5cd" stroke="#71a5cd" stroke-width="1.51"/><path d="M882,544L780,564L898,642Z" fill="#78aad0" stroke="#78aad0" stroke-width="1.51"/><path d="M762,-46L894,-84L905,-175Z" fill="#bccce3" stroke="#bccce3" stroke-width="1.51"/><path d="M705,-196L762,-46L905,-175Z" fill="#c2d0e6" stroke="#c2d0e6" stroke-width="1.51"/><path d="M780,564L685,667L898,642Z" fill="#79a9cf" stroke="#79a9cf" stroke-width="1.51"/><path d="M764,142L757,271L901,227Z" fill="#a7bedb" stroke="#a7bedb" stroke-width="1.51"/><path d="M852,421L780,564L882,544Z" fill="#83aed3" stroke="#83aed3" stroke-width="1.51"/><path d="M635,1236L257,1346L719,1275Z" fill="#6682a4" stroke="#6682a4" stroke-width="1.51"/><path d="M776,1122L719,1275L840,1303Z" fill="#567fa6" stroke="#567fa6" stroke-width="1.51"/><path d="M682,942L776,1122L868,951Z" fill="#5e8ebe" stroke="#5e8ebe" stroke-width="1.51"/><path d="M717,810L682,942L868,951Z" fill="#6497c6" stroke="#6497c6" stroke-width="1.51"/><path d="M710,420L780,564L852,421Z" fill="#8db2d5" stroke="#8db2d5" stroke-width="1.51"/><path d="M757,271L710,420L852,421Z" fill="#99b7d7" stroke="#99b7d7" stroke-width="1.51"/><path d="M301,-208L377,-169L595,-162Z" fill="#dedeed" stroke="#dedeed" stroke-width="1.51"/><path d="M-119,-268L-54,-239L301,-208Z" fill="#f4edf6" stroke="#f4edf6" stroke-width="1.51"/><path d="M379,1231L257,1346L635,1236Z" fill="#7087a8" stroke="#7087a8" stroke-width="1.51"/><path d="M762,-46L638,-4L764,142Z" fill="#bdcae3" stroke="#bdcae3" stroke-width="1.51"/><path d="M638,-4L606,38L764,142Z" fill="#bfcae3" stroke="#bfcae3" stroke-width="1.51"/><path d="M682,942L557,1013L776,1122Z" fill="#6791bf" stroke="#6791bf" stroke-width="1.51"/><path d="M557,1013L638,1188L776,1122Z" fill="#658cb8" stroke="#658cb8" stroke-width="1.51"/><path d="M638,1188L719,1275L776,1122Z" fill="#5e85ad" stroke="#5e85ad" stroke-width="1.51"/><path d="M710,420L621,535L780,564Z" fill="#8eb3d5" stroke="#8eb3d5" stroke-width="1.51"/><path d="M621,535L685,667L780,564Z" fill="#85afd2" stroke="#85afd2" stroke-width="1.51"/><path d="M595,-162L638,-4L705,-196Z" fill="#ccd4e8" stroke="#ccd4e8" stroke-width="1.51"/><path d="M705,-196L638,-4L762,-46Z" fill="#c6d0e6" stroke="#c6d0e6" stroke-width="1.51"/><path d="M531,221L757,271L764,142Z" fill="#b1c2de" stroke="#b1c2de" stroke-width="1.51"/><path d="M606,38L531,221L764,142Z" fill="#bdc7e1" stroke="#bdc7e1" stroke-width="1.51"/><path d="M531,221L710,420L757,271Z" fill="#a9bedc" stroke="#a9bedc" stroke-width="1.51"/><path d="M638,1188L635,1236L719,1275Z" fill="#5f83a9" stroke="#5f83a9" stroke-width="1.51"/><path d="M574,655L580,837L685,667Z" fill="#7da9d0" stroke="#7da9d0" stroke-width="1.51"/><path d="M531,221L527,426L710,420Z" fill="#a9bedc" stroke="#a9bedc" stroke-width="1.51"/><path d="M685,667L580,837L717,810Z" fill="#74a4cd" stroke="#74a4cd" stroke-width="1.51"/><path d="M580,837L682,942L717,810Z" fill="#6f9dc9" stroke="#6f9dc9" stroke-width="1.51"/><path d="M621,535L574,655L685,667Z" fill="#87afd3" stroke="#87afd3" stroke-width="1.51"/><path d="M527,426L621,535L710,420Z" fill="#9ab8d8" stroke="#9ab8d8" stroke-width="1.51"/><path d="M580,837L557,1013L682,942Z" fill="#7099c8" stroke="#7099c8" stroke-width="1.51"/><path d="M574,655L469,742L580,837Z" fill="#7faad0" stroke="#7faad0" stroke-width="1.51"/><path d="M557,1013L409,1114L638,1188Z" fill="#6f91bb" stroke="#6f91bb" stroke-width="1.51"/><path d="M379,1231L635,1236L638,1188Z" fill="#6988ad" stroke="#6988ad" stroke-width="1.51"/><path d="M409,1114L379,1231L638,1188Z" fill="#718eb4" stroke="#718eb4" stroke-width="1.51"/><path d="M442,-65L606,38L638,-4Z" fill="#ccd2e7" stroke="#ccd2e7" stroke-width="1.51"/><path d="M595,-162L442,-65L638,-4Z" fill="#d0d5e9" stroke="#d0d5e9" stroke-width="1.51"/><path d="M487,835L557,1013L580,837Z" fill="#779eca" stroke="#779eca" stroke-width="1.51"/><path d="M405,116L531,221L606,38Z" fill="#c6cce3" stroke="#c6cce3" stroke-width="1.51"/><path d="M428,583L574,655L621,535Z" fill="#91b4d5" stroke="#91b4d5" stroke-width="1.51"/><path d="M527,426L428,583L621,535Z" fill="#9bb8d8" stroke="#9bb8d8" stroke-width="1.51"/><path d="M413,349L527,426L531,221Z" fill="#b2c2de" stroke="#b2c2de" stroke-width="1.51"/><path d="M469,742L487,835L580,837Z" fill="#7ea6ce" stroke="#7ea6ce" stroke-width="1.51"/><path d="M442,-65L405,116L606,38Z" fill="#ced2e6" stroke="#ced2e6" stroke-width="1.51"/><path d="M450,1012L409,1114L557,1013Z" fill="#7696c1" stroke="#7696c1" stroke-width="1.51"/><path d="M487,835L450,1012L557,1013Z" fill="#779bc9" stroke="#779bc9" stroke-width="1.51"/><path d="M377,-169L442,-65L595,-162Z" fill="#d9daeb" stroke="#d9daeb" stroke-width="1.51"/><path d="M405,116L418,195L531,221Z" fill="#c5cbe3" stroke="#c5cbe3" stroke-width="1.51"/><path d="M428,583L469,742L574,655Z" fill="#8db1d4" stroke="#8db1d4" stroke-width="1.51"/><path d="M322,418L428,583L527,426Z" fill="#a6bedc" stroke="#a6bedc" stroke-width="1.51"/><path d="M413,349L322,418L527,426Z" fill="#b0c2de" stroke="#b0c2de" stroke-width="1.51"/><path d="M418,195L413,349L531,221Z" fill="#bdc8e1" stroke="#bdc8e1" stroke-width="1.51"/><path d="M428,583L291,748L469,742Z" fill="#91b3d5" stroke="#91b3d5" stroke-width="1.51"/><path d="M274,849L450,1012L487,835Z" fill="#81a2cc" stroke="#81a2cc" stroke-width="1.51"/><path d="M469,742L291,748L487,835Z" fill="#87abd1" stroke="#87abd1" stroke-width="1.51"/><path d="M291,748L274,849L487,835Z" fill="#8aabd1" stroke="#8aabd1" stroke-width="1.51"/><path d="M257,-38L405,116L442,-65Z" fill="#d8d7ea" stroke="#d8d7ea" stroke-width="1.51"/><path d="M274,849L236,976L450,1012Z" fill="#84a1cd" stroke="#84a1cd" stroke-width="1.51"/><path d="M-54,-239L115,-168L301,-208Z" fill="#efeaf4" stroke="#efeaf4" stroke-width="1.51"/><path d="M327,1120L409,1114L450,1012Z" fill="#7b96bf" stroke="#7b96bf" stroke-width="1.51"/><path d="M236,976L327,1120L450,1012Z" fill="#809bc4" stroke="#809bc4" stroke-width="1.51"/><path d="M237,282L413,349L418,195Z" fill="#c1cae2" stroke="#c1cae2" stroke-width="1.51"/><path d="M322,418L239,561L428,583Z" fill="#a8bfdc" stroke="#a8bfdc" stroke-width="1.51"/><path d="M377,-169L257,-38L442,-65Z" fill="#dedcec" stroke="#dedcec" stroke-width="1.51"/><path d="M257,-38L316,142L405,116Z" fill="#d5d5e8" stroke="#d5d5e8" stroke-width="1.51"/><path d="M327,1120L379,1231L409,1114Z" fill="#7a93b9" stroke="#7a93b9" stroke-width="1.51"/><path d="M316,142L237,282L418,195Z" fill="#cacee5" stroke="#cacee5" stroke-width="1.51"/><path d="M405,116L316,142L418,195Z" fill="#cccfe5" stroke="#cccfe5" stroke-width="1.51"/><path d="M239,561L291,748L428,583Z" fill="#9cb9d8" stroke="#9cb9d8" stroke-width="1.51"/><path d="M237,282L322,418L413,349Z" fill="#bbc7e1" stroke="#bbc7e1" stroke-width="1.51"/><path d="M301,-208L257,-38L377,-169Z" fill="#e3e0ee" stroke="#e3e0ee" stroke-width="1.51"/><path d="M327,1120L257,1346L379,1231Z" fill="#798eb0" stroke="#798eb0" stroke-width="1.51"/><path d="M188,-73L257,-38L301,-208Z" fill="#e4e1ee" stroke="#e4e1ee" stroke-width="1.51"/><path d="M257,-38L120,77L316,142Z" fill="#dbd9eb" stroke="#dbd9eb" stroke-width="1.51"/><path d="M182,531L239,561L322,418Z" fill="#adc3de" stroke="#adc3de" stroke-width="1.51"/><path d="M77,1114L257,1346L327,1120Z" fill="#7f94b7" stroke="#7f94b7" stroke-width="1.51"/><path d="M181,1040L77,1114L327,1120Z" fill="#859dc2" stroke="#859dc2" stroke-width="1.51"/><path d="M236,976L181,1040L327,1120Z" fill="#849dc5" stroke="#849dc5" stroke-width="1.51"/><path d="M239,561L133,737L291,748Z" fill="#9bb9d9" stroke="#9bb9d9" stroke-width="1.51"/><path d="M237,282L105,412L322,418Z" fill="#becae3" stroke="#becae3" stroke-width="1.51"/><path d="M105,412L182,531L322,418Z" fill="#b6c6e0" stroke="#b6c6e0" stroke-width="1.51"/><path d="M77,1114L80,1343L257,1346Z" fill="#7f91ae" stroke="#7f91ae" stroke-width="1.51"/><path d="M107,210L237,282L316,142Z" fill="#ced2e7" stroke="#ced2e7" stroke-width="1.51"/><path d="M120,77L107,210L316,142Z" fill="#d7d6e9" stroke="#d7d6e9" stroke-width="1.51"/><path d="M115,-168L188,-73L301,-208Z" fill="#e9e4f0" stroke="#e9e4f0" stroke-width="1.51"/><path d="M133,737L119,825L274,849Z" fill="#93b2d5" stroke="#93b2d5" stroke-width="1.51"/><path d="M133,737L274,849L291,748Z" fill="#92b2d5" stroke="#92b2d5" stroke-width="1.51"/><path d="M188,-73L120,77L257,-38Z" fill="#e2dfee" stroke="#e2dfee" stroke-width="1.51"/><path d="M119,825L236,976L274,849Z" fill="#8daad1" stroke="#8daad1" stroke-width="1.51"/><path d="M182,531L133,737L239,561Z" fill="#a5bfdc" stroke="#a5bfdc" stroke-width="1.51"/><path d="M119,825L181,1040L236,976Z" fill="#8ba6cf" stroke="#8ba6cf" stroke-width="1.51"/><path d="M107,210L105,412L237,282Z" fill="#c9d0e6" stroke="#c9d0e6" stroke-width="1.51"/><path d="M119,825L34,865L181,1040Z" fill="#90abd2" stroke="#90abd2" stroke-width="1.51"/><path d="M41,362L105,412L107,210Z" fill="#c9d1e6" stroke="#c9d1e6" stroke-width="1.51"/><path d="M15,484L-53,728L133,737Z" fill="#a8c2dd" stroke="#a8c2dd" stroke-width="1.51"/><path d="M-59,992L77,1114L181,1040Z" fill="#8da4c9" stroke="#8da4c9" stroke-width="1.51"/><path d="M34,865L-59,992L181,1040Z" fill="#91a9d0" stroke="#91a9d0" stroke-width="1.51"/><path d="M15,484L133,737L182,531Z" fill="#abc3de" stroke="#abc3de" stroke-width="1.51"/><path d="M105,412L15,484L182,531Z" fill="#b7c9e2" stroke="#b7c9e2" stroke-width="1.51"/><path d="M-8,-114L120,77L188,-73Z" fill="#e7e3f0" stroke="#e7e3f0" stroke-width="1.51"/><path d="M115,-168L-8,-114L188,-73Z" fill="#ece7f2" stroke="#ece7f2" stroke-width="1.51"/><path d="M-59,992L-21,1095L77,1114Z" fill="#8ea4c8" stroke="#8ea4c8" stroke-width="1.51"/><path d="M-21,1095L-57,1348L77,1114Z" fill="#899cbc" stroke="#899cbc" stroke-width="1.51"/><path d="M77,1114L-57,1348L80,1343Z" fill="#8394b0" stroke="#8394b0" stroke-width="1.51"/><path d="M-28,243L41,362L107,210Z" fill="#d0d5e8" stroke="#d0d5e8" stroke-width="1.51"/><path d="M-7,99L107,210L120,77Z" fill="#dddbec" stroke="#dddbec" stroke-width="1.51"/><path d="M-8,-114L-7,99L120,77Z" fill="#e6e2ef" stroke="#e6e2ef" stroke-width="1.51"/><path d="M34,865L119,825L133,737Z" fill="#97b4d6" stroke="#97b4d6" stroke-width="1.51"/><path d="M-53,728L34,865L133,737Z" fill="#9bb8d9" stroke="#9bb8d9" stroke-width="1.51"/><path d="M-54,-239L-8,-114L115,-168Z" fill="#f2ebf4" stroke="#f2ebf4" stroke-width="1.51"/><path d="M-7,99L-28,243L107,210Z" fill="#dadaeb" stroke="#dadaeb" stroke-width="1.51"/><path d="M41,362L15,484L105,412Z" fill="#c0cee4" stroke="#c0cee4" stroke-width="1.51"/><path d="M-155,1235L-57,1348L-21,1095Z" fill="#899ab7" stroke="#899ab7" stroke-width="1.51"/><path d="M-8,-114L-124,-6L-7,99Z" fill="#eae6f2" stroke="#eae6f2" stroke-width="1.51"/><path d="M-202,536L-53,728L15,484Z" fill="#b2c8e1" stroke="#b2c8e1" stroke-width="1.51"/><path d="M-53,728L-118,818L34,865Z" fill="#9cb9d9" stroke="#9cb9d9" stroke-width="1.51"/><path d="M-218,359L15,484L41,362Z" fill="#c5d1e6" stroke="#c5d1e6" stroke-width="1.51"/><path d="M-28,243L-218,359L41,362Z" fill="#cfd6e9" stroke="#cfd6e9" stroke-width="1.51"/><path d="M-118,818L-59,992L34,865Z" fill="#98b1d5" stroke="#98b1d5" stroke-width="1.51"/><path d="M-154,1125L-155,1235L-21,1095Z" fill="#8fa2c2" stroke="#8fa2c2" stroke-width="1.51"/><path d="M-218,359L-202,536L15,484Z" fill="#c1d1e6" stroke="#c1d1e6" stroke-width="1.51"/><path d="M-119,-268L-124,-6L-54,-239Z" fill="#f5eef6" stroke="#f5eef6" stroke-width="1.51"/><path d="M-202,536L-188,718L-53,728Z" fill="#acc5df" stroke="#acc5df" stroke-width="1.51"/><path d="M-54,-239L-124,-6L-8,-114Z" fill="#f2ebf5" stroke="#f2ebf5" stroke-width="1.51"/><path d="M-124,-6L-162,55L-7,99Z" fill="#e8e4f1" stroke="#e8e4f1" stroke-width="1.51"/><path d="M-207,187L-28,243L-7,99Z" fill="#deddec" stroke="#deddec" stroke-width="1.51"/><path d="M-162,55L-207,187L-7,99Z" fill="#e5e1ef" stroke="#e5e1ef" stroke-width="1.51"/><path d="M-59,992L-154,1125L-21,1095Z" fill="#91a5c9" stroke="#91a5c9" stroke-width="1.51"/><path d="M-207,187L-218,359L-28,243Z" fill="#d7dbec" stroke="#d7dbec" stroke-width="1.51"/><path d="M-118,818L-220,993L-59,992Z" fill="#98b0d5" stroke="#98b0d5" stroke-width="1.51"/><path d="M-220,993L-154,1125L-59,992Z" fill="#94aacd" stroke="#94aacd" stroke-width="1.51"/><path d="M-188,718L-118,818L-53,728Z" fill="#a1bfdb" stroke="#a1bfdb" stroke-width="1.51"/><path d="M-162,55L-124,-6L-119,-268Z" fill="#f1ebf5" stroke="#f1ebf5" stroke-width="1.51"/><path d="M-188,718L-220,993L-118,818Z" fill="#9eb9d9" stroke="#9eb9d9" stroke-width="1.51"/><path d="M-207,187L-162,55L-119,-268Z" fill="#eee9f3" stroke="#eee9f3" stroke-width="1.51"/><path d="M-220,993L-155,1235L-154,1125Z" fill="#92a6c6" stroke="#92a6c6" stroke-width="1.51"/><path d="M-202,536L-220,993L-188,718Z" fill="#a4c1dd" stroke="#a4c1dd" stroke-width="1.51"/><path d="M-218,359L-220,993L-202,536Z" fill="#b1c9e2" stroke="#b1c9e2" stroke-width="1.51"/></svg>