<?xml version="1.0" standalone="no"?>
<!DOCTYPE svg PUBLIC "-//W3C//DTD SVG 20010904//EN"
 "http://www.w3.org/TR/2001/REC-SVG-20010904/DTD/svg10.dtd">
<svg version="1.0" xmlns="http://www.w3.org/2000/svg"
 width="700.000000pt" height="700.000000pt" viewBox="0 0 700.000000 700.000000"
 preserveAspectRatio="xMidYMid meet">
<g transform="translate(0.000000,700.000000) scale(0.100000,-0.100000)"
fill="#000000" stroke="none">
<path d="M3397 5954 c-1 -1 -47 -5 -101 -8 -55 -4 -102 -8 -105 -10 -3 -2 -28
-6 -56 -10 -202 -25 -472 -107 -690 -210 -96 -46 -311 -168 -325 -185 -3 -3
-27 -22 -55 -41 -27 -19 -59 -41 -69 -50 -409 -326 -685 -721 -835 -1192 -17
-54 -36 -119 -42 -145 -6 -27 -13 -57 -15 -68 -35 -150 -58 -358 -58 -530 0
-90 12 -304 18 -314 2 -3 6 -28 10 -56 7 -57 13 -91 27 -155 6 -25 12 -53 14
-63 6 -26 9 -38 45 -156 175 -571 585 -1083 1110 -1388 516 -299 1123 -399
1715 -282 534 106 1023 394 1376 810 184 217 285 381 412 669 30 68 87 247
112 350 100 416 91 850 -26 1258 -117 404 -338 776 -640 1074 -406 399 -949
650 -1502 693 -85 7 -315 13 -320 9z m-115 -316 c57 -55 129 -125 161 -156
l57 -57 158 157 c129 129 161 155 182 153 14 -2 34 -4 45 -4 61 -3 53 -17
-128 -196 -97 -97 -177 -182 -177 -189 0 -6 8 -19 18 -27 9 -9 91 -91 181
-183 90 -91 167 -166 170 -166 3 0 91 85 196 190 l189 189 -182 181 c-100 100
-174 179 -164 176 9 -2 54 -14 99 -26 l81 -22 121 -121 121 -121 47 40 c87 71
76 68 129 41 l47 -24 -63 -62 -63 -63 189 -189 c104 -104 193 -189 197 -189 5
0 47 38 93 85 47 47 87 85 90 85 6 0 64 -62 64 -69 0 -4 -38 -44 -85 -91 -47
-47 -85 -89 -85 -93 0 -12 365 -377 376 -377 5 0 29 20 54 45 71 72 76 73 101
19 l21 -47 -51 -51 -51 -52 123 -124 c69 -70 127 -136 130 -150 3 -14 15 -58
26 -99 l20 -75 -189 189 -190 189 -192 -192 -193 -192 190 -190 c104 -104 193
-189 197 -188 4 2 91 86 193 187 102 101 185 180 186 175 0 -5 2 -16 4 -24 1
-8 6 -33 9 -55 l6 -40 -160 -160 c-88 -88 -160 -164 -160 -170 0 -5 72 -82
160 -169 123 -122 159 -164 156 -180 -15 -81 -19 -96 -25 -96 -3 0 -89 83
-191 185 l-185 185 -193 -193 -192 -192 192 -192 193 -193 71 68 c219 208 298
281 301 278 1 -1 -8 -43 -20 -93 l-23 -92 -127 -127 -126 -127 49 -47 c28 -27
50 -53 50 -59 0 -7 -9 -30 -21 -53 l-21 -41 -67 67 -66 66 -193 -193 -192
-193 94 -94 95 -94 -22 -21 c-58 -54 -50 -57 -153 46 l-94 94 -192 -193 -192
-192 63 -64 62 -63 -48 -24 -48 -25 -53 53 -53 53 -125 -126 c-135 -137 -121
-129 -289 -168 -24 -6 5 28 157 181 l188 188 -193 193 -192 192 -192 -192
-192 -193 188 -192 188 -191 -61 -11 -61 -11 -58 58 c-32 31 -107 105 -165
165 l-107 107 -160 -160 -161 -161 -57 7 c-32 4 -59 10 -62 13 -2 4 65 75 148
158 84 84 167 167 185 186 l33 34 -192 192 -192 192 -188 -188 c-104 -103
-189 -192 -189 -197 0 -5 81 -89 180 -188 98 -98 177 -178 174 -178 -21 0
-173 44 -190 55 -11 7 -69 63 -129 124 -60 61 -112 111 -116 111 -4 0 -30 -22
-58 -49 l-51 -49 -45 21 c-25 12 -45 23 -45 27 0 3 27 32 60 65 l60 60 -192
192 -193 193 -87 -87 -87 -86 -35 27 c-20 15 -36 33 -36 39 0 7 36 48 80 92
44 44 80 82 80 86 0 8 -372 379 -380 379 -3 0 -30 -25 -60 -55 l-54 -55 -23
37 c-13 21 -23 44 -23 51 0 8 21 34 46 59 l47 45 -117 117 -117 117 -24 89
c-14 50 -25 94 -25 99 0 5 79 -71 176 -168 l177 -176 188 192 c104 106 189
196 189 199 0 9 -369 379 -378 379 -4 0 -88 -81 -186 -179 -99 -99 -183 -178
-188 -175 -5 3 -6 9 -4 12 2 4 0 29 -5 56 l-9 48 161 157 161 157 -157 157
-157 157 7 42 c4 24 7 51 7 61 -1 9 2 17 6 17 4 0 86 -79 182 -175 96 -96 178
-175 182 -175 8 0 378 371 378 379 0 4 -85 91 -190 196 l-189 189 -171 -169
c-94 -94 -173 -172 -176 -175 -8 -7 4 52 27 126 17 56 29 72 136 178 l116 117
-45 46 -46 46 21 44 c11 23 25 43 30 43 5 0 33 -25 62 -55 l53 -54 179 178
c98 97 184 185 192 194 12 15 4 26 -73 102 -47 47 -86 87 -86 89 0 8 58 66 67
66 6 0 46 -36 89 -80 43 -44 83 -80 87 -80 5 0 94 85 198 188 l188 188 -59 59
-60 59 48 27 47 26 46 -46 c26 -25 50 -45 54 -45 4 1 58 51 119 112 l112 111
88 25 c49 15 93 26 100 26 6 0 -67 -78 -162 -173 -94 -95 -172 -175 -172 -179
0 -4 85 -92 189 -196 l189 -190 193 194 193 193 -182 182 c-101 100 -181 184
-178 186 2 2 19 7 38 10 18 3 34 6 35 7 1 1 11 2 22 3 14 1 55 -32 123 -99z"/>
<path d="M2382 5077 l-191 -192 192 -193 192 -192 193 193 192 192 -188 187
c-103 103 -189 190 -192 192 -3 3 -92 -81 -198 -187z"/>
<path d="M3312 5089 c-100 -100 -186 -187 -192 -193 -6 -9 48 -69 183 -204
l192 -191 192 192 192 193 -192 192 -193 193 -182 -182z"/>
<path d="M4216 5079 c-167 -168 -187 -191 -175 -206 8 -9 94 -97 192 -194
l179 -178 194 191 c190 188 194 192 176 212 -9 12 -20 24 -25 27 -4 3 -83 80
-176 172 -93 92 -170 167 -172 166 -2 0 -89 -85 -193 -190z"/>
<path d="M1922 4617 l-192 -192 188 -187 c103 -103 189 -190 192 -192 3 -3 92
81 198 187 l191 192 -192 192 -192 193 -193 -193z"/>
<path d="M2853 4631 c-98 -98 -184 -185 -192 -194 -12 -15 8 -38 179 -207
l191 -191 189 188 c105 103 190 191 190 195 0 4 -85 93 -189 197 l-189 190
-179 -178z"/>
<path d="M3762 4617 l-192 -192 193 -193 192 -192 193 193 192 192 -193 193
-192 192 -193 -193z"/>
<path d="M4684 4619 c-104 -104 -190 -191 -192 -193 -2 -2 84 -90 189 -195
l193 -192 188 188 c103 103 188 192 188 197 0 5 -85 93 -188 197 l-189 188
-189 -190z"/>
<path d="M2375 4160 l-189 -190 44 -45 c109 -112 331 -330 338 -333 4 -1 93
83 197 188 l190 190 -190 190 c-105 104 -192 190 -195 190 -3 0 -91 -85 -195
-190z"/>
<path d="M4215 4160 l-190 -190 193 -193 192 -192 192 192 193 193 -190 190
c-104 104 -192 190 -195 190 -3 0 -91 -86 -195 -190z"/>
<path d="M3296 4151 l-189 -189 192 -193 193 -192 189 189 c104 104 189 192
189 197 0 10 -368 377 -378 377 -4 0 -92 -85 -196 -189z"/>
<path d="M1922 3698 l-193 -192 188 -188 c103 -103 192 -188 198 -188 5 0 94
85 197 188 l187 188 -192 192 -193 193 -192 -193z"/>
<path d="M2836 3699 c-104 -104 -186 -193 -182 -197 3 -4 90 -91 192 -193
l186 -187 192 192 192 191 -190 192 c-105 106 -193 192 -196 192 -3 0 -90 -85
-194 -190z"/>
<path d="M3762 3697 l-192 -192 193 -192 193 -193 192 193 192 193 -190 189
c-105 105 -192 191 -193 192 -2 1 -89 -84 -195 -190z"/>
<path d="M4676 3698 l-188 -190 183 -188 c101 -103 190 -188 197 -188 14 -2
382 360 382 375 0 9 -372 383 -380 382 -3 0 -90 -86 -194 -191z"/>
<path d="M2378 3240 c-104 -104 -188 -192 -188 -196 0 -3 85 -92 189 -196
l189 -189 191 191 c105 105 191 193 191 195 0 4 -350 355 -370 371 -12 10 -49
-22 -202 -176z"/>
<path d="M3305 3240 c-105 -105 -189 -193 -189 -196 2 -6 129 -136 291 -297
l88 -87 192 193 192 192 -192 193 -193 192 -189 -190z"/>
<path d="M4221 3241 c-105 -105 -191 -193 -191 -197 0 -3 86 -92 191 -196
l191 -190 194 193 c107 106 194 194 194 194 0 1 -87 88 -194 193 l-194 193
-191 -190z"/>
<path d="M1922 2777 l-192 -192 192 -193 191 -193 189 188 c103 103 188 192
188 198 0 5 -85 94 -188 197 l-188 187 -192 -192z"/>
<path d="M2843 2779 c-103 -104 -190 -192 -192 -194 -2 -2 83 -91 188 -197
l192 -192 190 190 c104 104 189 192 189 196 0 5 -85 93 -189 197 l-189 189
-189 -189z"/>
<path d="M3762 2777 l-192 -192 190 -190 c105 -105 192 -191 193 -192 2 -1 89
84 195 190 l192 192 -193 192 -192 193 -193 -193z"/>
<path d="M4679 2774 c-101 -102 -186 -187 -188 -189 -2 -2 83 -90 189 -196
l192 -192 189 189 c104 104 189 192 189 197 0 10 -368 377 -378 377 -5 0 -91
-84 -193 -186z"/>
<path d="M4220 2319 c-102 -104 -186 -193 -188 -197 -1 -4 83 -93 188 -197
l190 -190 190 190 c105 104 190 192 190 195 0 7 -374 390 -380 390 -3 0 -89
-86 -190 -191z"/>
<path d="M2375 2310 l-190 -190 193 -193 192 -192 192 192 193 193 -190 190
c-104 104 -192 190 -195 190 -3 0 -91 -86 -195 -190z"/>
<path d="M3296 2310 l-189 -189 192 -192 192 -193 50 50 c28 27 115 114 194
192 l143 144 -189 189 c-105 104 -193 189 -197 189 -4 0 -92 -86 -196 -190z"/>
</g>
</svg>
